<svg width="24" height="25" viewBox="0 0 24 25" fill="none" xmlns="http://www.w3.org/2000/svg">
<path d="M21 16.0209V8.02088C20.9996 7.67016 20.9071 7.32569 20.7315 7.02205C20.556 6.7184 20.3037 6.46625 20 6.29088L13 2.29088C12.696 2.11535 12.3511 2.02293 12 2.02293C11.6489 2.02293 11.304 2.11535 11 2.29088L4 6.29088C3.69626 6.46625 3.44398 6.7184 3.26846 7.02205C3.09294 7.32569 3.00036 7.67016 3 8.02088V16.0209C3.00036 16.3716 3.09294 16.7161 3.26846 17.0197C3.44398 17.3234 3.69626 17.5755 4 17.7509L11 21.7509C11.304 21.9264 11.6489 22.0188 12 22.0188C12.3511 22.0188 12.696 21.9264 13 21.7509L20 17.7509C20.3037 17.5755 20.556 17.3234 20.7315 17.0197C20.9071 16.7161 20.9996 16.3716 21 16.0209Z" stroke="black" stroke-width="2" stroke-linecap="round" stroke-linejoin="round"/>
<path d="M3.29004 7.02089L12 12.0209L20.71 7.02089" stroke="black" stroke-width="2" stroke-linecap="round" stroke-linejoin="round"/>
<path d="M12 22.0209V12.0209" stroke="black" stroke-width="2" stroke-linecap="round" stroke-linejoin="round"/>
</svg>
